<?xml version="1.0" encoding="UTF-8"?>
<svg id="Camada_2" data-name="Camada 2" xmlns="http://www.w3.org/2000/svg" viewBox="0 0 1098.95 347.41">
  <defs>
    <style>
      .cls-1, .cls-2, .cls-3 {
        fill: #e0f646;
      }

      .cls-2 {
        font-family: Montserrat-Bold, Montserrat;
        font-size: 277.94px;
        font-weight: 700;
      }

      .cls-4 {
        letter-spacing: -.01em;
      }

      .cls-5 {
        letter-spacing: -.04em;
      }

      .cls-6 {
        letter-spacing: 0em;
      }

      .cls-3 {
        font-family: Montserrat-Light, Montserrat;
        font-size: 77.09px;
        font-weight: 300;
        letter-spacing: 1.6em;
      }
    </style>
  </defs>
  <g id="Camada_1-2" data-name="Camada 1">
    <g>
      <text class="cls-2" transform="translate(310.45 236.24)"><tspan class="cls-5" x="0" y="0">A</tspan><tspan class="cls-4" x="202.34" y="0">V</tspan><tspan class="cls-6" x="405.51" y="0">E</tspan><tspan x="590.06" y="0">X</tspan></text>
      <g>
        <g>
          <path class="cls-1" d="M259.71,197.06l-23.04,39.18L116.09,41.73l56.21-.04,86.32,135.47c3.4,5.51,4.03,14.13,1.1,19.9Z"/>
          <path class="cls-1" d="M285.98,137.29l-50.91,7.51,62.01-102.97,51.18-.14-49.45,85.92s0,0,0,0c-2.35,5.28-6.73,8.59-12.84,9.68Z"/>
        </g>
        <g>
          <path class="cls-1" d="M88.56,80.87l23.04-39.18,120.58,194.51-56.21.04L89.65,100.76c-3.4-5.51-4.03-14.13-1.1-19.9Z"/>
          <path class="cls-1" d="M62.29,140.65l50.91-7.51-62.01,102.97-51.18.14,49.45-85.92s0,0,0,0c2.35-5.28,6.73-8.59,12.84-9.68Z"/>
        </g>
      </g>
    </g>
    <text class="cls-3" transform="translate(0 327.29)"><tspan x="0" y="0">FINANCE</tspan></text>
  </g>
</svg>